<svg width="187.7474609375px" height="122.021240234375px" xmlns="http://www.w3.org/2000/svg"
     viewBox="156.12626953125 13.9893798828125 187.7474609375 122.021240234375" style="background: rgb(250, 252, 255);"
     preserveAspectRatio="xMidYMid"><defs><filter id="editing-vintage" x="-100%" y="-100%" width="300%" height="300%"><feConvolveMatrix in="SourceGraphic" result="extrude" order="9,9" divisor="1" kernelMatrix="1,0,0,0,0,0,0,0,0,0,1,0,0,0,0,0,0,0,0,0,1,0,0,0,0,0,0,0,0,0,1,0,0,0,0,0,0,0,0,0,1,0,0,0,0,0,0,0,0,0,1,0,0,0,0,0,0,0,0,0,1,0,0,0,0,0,0,0,0,0,1,0,0,0,0,0,0,0,0,0,1"> </feConvolveMatrix><feFlood flood-color="#e7e5e8" result="flood-extrude"></feFlood><feComposite operator="in" in="flood-extrude" in2="extrude" result="extrude-color"></feComposite><feOffset dx="5" dy="5" in="extrude-color" result="extrude-offset"></feOffset><feColorMatrix in="SourceGraphic" result="stroke" type="matrix" values="0 0 0 0 0 0 0 0 0 0 0 0 0 0 0 0 1 0 0 0 "></feColorMatrix><feColorMatrix in="SourceGraphic" result="fill" type="matrix" values="0 0 0 0 0 0 0 0 0 0 0 0 0 0 0 1 0 0 1 0 "></feColorMatrix><feConvolveMatrix in="stroke" result="inner-shadow" order="5,5" divisor="1" kernelMatrix="1 0 0 0 0 0 1 0 0 0 0 0 1 0 0 0 0 0 1 0 0 0 0 0 1 "></feConvolveMatrix><feOffset dx="1" dy="1" in="inner-shadow" result="offset"></feOffset><feComposite operator="in" in="offset" in2="SourceAlpha" result="comp"></feComposite><feFlood flood-color="#fbbc42" result="flood3"></feFlood><feComposite operator="in" in="flood3" in2="comp" result="comp2"></feComposite><feColorMatrix in="comp2" result="comp3" type="matrix" values="1 0 0 0 0 0 1 0 0 0 0 0 1 0 0 0 0 0 0.5 0 "></feColorMatrix><feFlood flood-color="#e76a24" result="flood1"></feFlood><feComposite operator="in" in="flood1" in2="fill" result="fill2"></feComposite><feFlood flood-color="#fff" result="flood2"></feFlood><feComposite operator="in" in="flood2" in2="stroke" result="stroke2"></feComposite><feMerge result="obj"><feMergeNode in="extrude-offset"></feMergeNode><feMergeNode in="fill2"></feMergeNode><feMergeNode in="comp3"></feMergeNode></feMerge><feConvolveMatrix in="SourceAlpha" result="shadow" order="9,9" divisor="1" kernelMatrix="1,0,0,0,0,0,0,0,0,0,1,0,0,0,0,0,0,0,0,0,1,0,0,0,0,0,0,0,0,0,1,0,0,0,0,0,0,0,0,0,1,0,0,0,0,0,0,0,0,0,1,0,0,0,0,0,0,0,0,0,1,0,0,0,0,0,0,0,0,0,1,0,0,0,0,0,0,0,0,0,1"></feConvolveMatrix><feOffset dx="15" dy="15" in="shadow" result="shadow-offset"></feOffset><feFlood flood-color="#1c4595" result="flood-shadow"></feFlood><feComposite operator="in" in="flood-shadow" in2="shadow-offset" result="shadow-color"></feComposite><feMerge><feMergeNode in="shadow-color"></feMergeNode><feMergeNode in="obj"></feMergeNode></feMerge></filter></defs><g transform="translate(-9,-9)"><g filter="url(#editing-vintage)"><g transform="translate(190.0000021457672, 98.9921875)"><path d="M14.21 0L0.51 0L8.32-42.05L8.32-42.05Q14.66-42.75 23.90-42.75L23.90-42.75L23.90-42.75Q33.15-42.75 37.44-40.06L37.44-40.06L37.44-40.06Q41.73-37.38 41.73-31.97L41.73-31.97L41.73-31.97Q41.73-26.56 38.94-23.17L38.94-23.17L38.94-23.17Q36.16-19.78 31.36-18.69L31.36-18.69L31.36-18.69Q32.45-13.38 34.94-9.09L34.94-9.09L34.94-9.09Q37.25-5.06 39.94-3.78L39.94-3.78L39.94-3.78Q38.98-1.09 37.02 0.10L37.02 0.10L37.02 0.10Q35.07 1.28 32.29 1.28L32.29 1.28L32.29 1.28Q29.50 1.28 27.33-0.35L27.33-0.35L27.33-0.35Q25.15-1.98 23.42-4.99L23.42-4.99L23.42-4.99Q19.78-11.52 19.39-21.82L19.39-21.82L19.84-21.82L19.84-21.82Q24.58-21.95 26.94-24.42L26.94-24.42L26.94-24.42Q29.31-26.88 29.31-32.06L29.31-32.06L29.31-32.06Q29.31-38.53 23.87-38.78L23.87-38.78L22.46-38.78L22.46-38.78Q21.89-38.78 21.57-38.72L21.57-38.72L14.21 0ZM60.03-3.52L60.03-3.52L60.03-3.52Q58.05 1.28 51.71 1.28L51.71 1.28L51.71 1.28Q48.45 1.28 46.40-0.96L46.40-0.96L46.40-0.96Q44.67-2.94 44.67-4.93L44.67-4.93L44.67-4.93Q44.67-10.11 47.04-20.22L47.04-20.22L49.41-32.64L62.40-33.92L58.50-13.70L58.50-13.70Q57.41-8.96 57.41-7.30L57.41-7.30L57.41-7.30Q57.41-3.65 60.03-3.52ZM50.56-41.54L50.56-41.54L50.56-41.54Q50.56-44.03 52.64-45.38L52.64-45.38L52.64-45.38Q54.72-46.72 57.73-46.72L57.73-46.72L57.73-46.72Q60.74-46.72 62.56-45.38L62.56-45.38L62.56-45.38Q64.38-44.03 64.38-41.54L64.38-41.54L64.38-41.54Q64.38-39.04 62.37-37.76L62.37-37.76L62.37-37.76Q60.35-36.48 57.34-36.48L57.34-36.48L57.34-36.48Q54.34-36.48 52.45-37.76L52.45-37.76L52.45-37.76Q50.56-39.04 50.56-41.54ZM111.55 1.28L111.55 1.28L111.55 1.28Q103.81 1.28 103.81-4.74L103.81-4.74L103.81-4.74Q103.81-7.36 104.93-12.45L104.93-12.45L104.93-12.45Q106.05-17.54 106.43-19.58L106.43-19.58L106.43-19.58Q107.33-24.26 107.33-25.73L107.33-25.73L107.33-25.73Q107.33-28.99 104.90-28.99L104.90-28.99L104.90-28.99Q103.30-28.99 101.76-26.78L101.76-26.78L101.76-26.78Q100.22-24.58 99.52-20.16L99.52-20.16L95.55 0L83.07 1.28L86.53-16.13L86.53-16.13Q87.10-19.01 87.62-22.27L87.62-22.27L87.62-22.27Q88.13-25.54 88.13-26.05L88.13-26.05L88.13-26.05Q88.13-28.99 85.95-28.99L85.95-28.99L85.95-28.99Q84.48-28.99 82.88-26.82L82.88-26.82L82.88-26.82Q81.28-24.64 80.38-20.16L80.38-20.16L76.48 0L63.87 1.28L70.59-32.64L81.02-33.92L79.94-27.46L79.94-27.46Q81.60-30.91 84.67-32.42L84.67-32.42L84.67-32.42Q87.74-33.92 92.54-33.92L92.54-33.92L92.54-33.92Q95.30-33.92 97.09-32.58L97.09-32.58L97.09-32.58Q98.88-31.23 99.46-29.06L99.46-29.06L99.46-29.06Q100.54-31.30 103.33-32.61L103.33-32.61L103.33-32.61Q106.11-33.92 109.54-33.92L109.54-33.92L109.54-33.92Q112.96-33.92 114.66-33.18L114.66-33.18L114.66-33.18Q116.35-32.45 117.38-31.23L117.38-31.23L117.38-31.23Q119.10-28.99 119.10-24.90L119.10-24.90L119.10-24.90Q119.10-20.86 117.38-12.48L117.38-12.48L117.38-12.48Q116.48-8.38 116.48-6.88L116.48-6.88L116.48-6.88Q116.48-5.38 117.34-4.48L117.34-4.48L117.34-4.48Q118.21-3.58 119.49-3.46L119.49-3.46L119.49-3.46Q118.85-1.28 116.64 0L116.64 0L116.64 0Q114.43 1.28 111.55 1.28Z" fill="#f00" stroke="#0f0" stroke-width="1.8"></path></g></g><g><g transform="translate(190.0000021457672, 99)"><path d="M14.21 0L0.51 0L8.32-42.05L8.32-42.05Q14.66-42.75 23.90-42.75L23.90-42.75L23.90-42.75Q33.15-42.75 37.44-40.06L37.44-40.06L37.44-40.06Q41.73-37.38 41.73-31.97L41.73-31.97L41.73-31.97Q41.73-26.56 38.94-23.17L38.94-23.17L38.94-23.17Q36.16-19.78 31.36-18.69L31.36-18.69L31.36-18.69Q32.45-13.38 34.94-9.09L34.94-9.09L34.94-9.09Q37.25-5.06 39.94-3.78L39.94-3.78L39.94-3.78Q38.98-1.09 37.02 0.10L37.02 0.10L37.02 0.10Q35.07 1.28 32.29 1.28L32.29 1.28L32.29 1.28Q29.50 1.28 27.33-0.35L27.33-0.35L27.33-0.35Q25.15-1.98 23.42-4.99L23.42-4.99L23.42-4.99Q19.78-11.52 19.39-21.82L19.39-21.82L19.84-21.82L19.84-21.82Q24.58-21.95 26.94-24.42L26.94-24.42L26.94-24.42Q29.31-26.88 29.31-32.06L29.31-32.06L29.31-32.06Q29.31-38.53 23.87-38.78L23.87-38.78L22.46-38.78L22.46-38.78Q21.89-38.78 21.57-38.72L21.57-38.72L14.21 0ZM60.03-3.52L60.03-3.52L60.03-3.52Q58.05 1.28 51.71 1.28L51.71 1.28L51.71 1.28Q48.45 1.28 46.40-0.96L46.40-0.96L46.40-0.96Q44.67-2.94 44.67-4.93L44.67-4.93L44.67-4.93Q44.67-10.11 47.04-20.22L47.04-20.22L49.41-32.64L62.40-33.92L58.50-13.70L58.50-13.70Q57.41-8.96 57.41-7.30L57.41-7.30L57.41-7.30Q57.41-3.65 60.03-3.52ZM50.56-41.54L50.56-41.54L50.56-41.54Q50.56-44.03 52.64-45.38L52.64-45.38L52.64-45.38Q54.72-46.72 57.73-46.72L57.73-46.72L57.73-46.72Q60.74-46.72 62.56-45.38L62.56-45.38L62.56-45.38Q64.38-44.03 64.38-41.54L64.38-41.54L64.38-41.54Q64.38-39.04 62.37-37.76L62.37-37.76L62.37-37.76Q60.35-36.48 57.34-36.48L57.34-36.48L57.34-36.48Q54.34-36.48 52.45-37.76L52.45-37.76L52.45-37.76Q50.56-39.04 50.56-41.54ZM111.55 1.28L111.55 1.28L111.55 1.28Q103.81 1.28 103.81-4.74L103.81-4.74L103.81-4.74Q103.81-7.36 104.93-12.45L104.93-12.45L104.93-12.45Q106.05-17.54 106.43-19.58L106.43-19.58L106.43-19.58Q107.33-24.26 107.33-25.73L107.33-25.73L107.33-25.73Q107.33-28.99 104.90-28.99L104.90-28.99L104.90-28.99Q103.30-28.99 101.76-26.78L101.76-26.78L101.76-26.78Q100.22-24.58 99.52-20.16L99.52-20.16L95.55 0L83.07 1.28L86.53-16.13L86.53-16.13Q87.10-19.01 87.62-22.27L87.62-22.27L87.62-22.27Q88.13-25.54 88.13-26.05L88.13-26.05L88.13-26.05Q88.13-28.99 85.95-28.99L85.95-28.99L85.95-28.99Q84.48-28.99 82.88-26.82L82.88-26.82L82.88-26.82Q81.28-24.64 80.38-20.16L80.38-20.16L76.48 0L63.87 1.28L70.59-32.64L81.02-33.92L79.94-27.46L79.94-27.46Q81.60-30.91 84.67-32.42L84.67-32.42L84.67-32.42Q87.74-33.92 92.54-33.92L92.54-33.92L92.54-33.92Q95.30-33.92 97.09-32.58L97.09-32.58L97.09-32.58Q98.88-31.23 99.46-29.06L99.46-29.06L99.46-29.06Q100.54-31.30 103.33-32.61L103.33-32.61L103.33-32.61Q106.11-33.92 109.54-33.92L109.54-33.92L109.54-33.92Q112.96-33.92 114.66-33.18L114.66-33.18L114.66-33.18Q116.35-32.45 117.38-31.23L117.38-31.23L117.38-31.23Q119.10-28.99 119.10-24.90L119.10-24.90L119.10-24.90Q119.10-20.86 117.38-12.48L117.38-12.48L117.38-12.48Q116.48-8.38 116.48-6.88L116.48-6.88L116.48-6.88Q116.48-5.38 117.34-4.48L117.34-4.48L117.34-4.48Q118.21-3.58 119.49-3.46L119.49-3.46L119.49-3.46Q118.85-1.28 116.64 0L116.64 0L116.64 0Q114.43 1.28 111.55 1.28Z" fill="none" stroke="#01080a" stroke-width="2.1"></path></g></g></g></svg>